<svg width="137" height="137" viewBox="0 0 137 137" fill="none" xmlns="http://www.w3.org/2000/svg">
<path d="M42.5 22V20.5H41.8787L41.4393 20.9393L42.5 22ZM42.3536 22.1464L43.4142 23.2071L43.4142 23.2071L42.3536 22.1464ZM18.3536 46.1464L17.2929 45.0858H17.2929L18.3536 46.1464ZM18 46.5L16.9393 45.4393L15.8787 46.5L16.9393 47.5607L18 46.5ZM18.3536 46.8536L17.2929 47.9142H17.2929L18.3536 46.8536ZM36.8536 65.3536L35.7929 66.4142L36.8536 65.3536ZM37.2071 65.7071L36.1464 66.7678L37.2071 67.8284L38.2678 66.7678L37.2071 65.7071ZM42.2071 60.7071H43.7071V57.0858L41.1464 59.6464L42.2071 60.7071ZM42.2071 115H40.7071V116.5H42.2071V115ZM95.2071 115V116.5H96.7071V115H95.2071ZM95.2071 60.7071L96.2678 59.6464L93.7071 57.0858V60.7071H95.2071ZM100.207 65.7071L99.1464 66.7678L100.207 67.8284L101.268 66.7678L100.207 65.7071ZM119.414 46.5L120.475 47.5607L121.536 46.5L120.475 45.4393L119.414 46.5ZM119.061 46.1464L120.121 45.0858L119.061 46.1464ZM95.0607 22.1464L94 23.2071V23.2071L95.0607 22.1464ZM94.9142 22L95.9749 20.9393L95.5355 20.5H94.9142V22ZM42.9142 23V21.5H42.2929L41.8536 21.9393L42.9142 23ZM19.4142 46.5L18.3536 45.4393L17.2929 46.5L18.3536 47.5607L19.4142 46.5ZM37.2071 64.2929L36.1464 65.3536L37.2071 66.4142L38.2678 65.3536L37.2071 64.2929ZM43.2071 58.2929H44.7071V54.6716L42.1464 57.2322L43.2071 58.2929ZM43.2071 114H41.7071V115.5H43.2071V114ZM94.2071 114V115.5H95.7071V114H94.2071ZM94.2071 58.2929L95.2678 57.2322L92.7071 54.6716V58.2929H94.2071ZM100.207 64.2929L99.1464 65.3536L100.207 66.4142L101.268 65.3536L100.207 64.2929ZM118 46.5L119.061 47.5607L120.121 46.5L119.061 45.4393L118 46.5ZM94.5 23L95.5607 21.9393L95.1213 21.5H94.5V23ZM42.5 23.5H42.7071V20.5H42.5V23.5ZM43.4142 23.2071L43.5607 23.0607L41.4393 20.9393L41.2929 21.0858L43.4142 23.2071ZM19.4142 47.2071L43.4142 23.2071L41.2929 21.0858L17.2929 45.0858L19.4142 47.2071ZM19.0607 47.5607L19.4142 47.2071L17.2929 45.0858L16.9393 45.4393L19.0607 47.5607ZM19.4142 45.7929L19.0607 45.4393L16.9393 47.5607L17.2929 47.9142L19.4142 45.7929ZM37.9142 64.2929L19.4142 45.7929L17.2929 47.9142L35.7929 66.4142L37.9142 64.2929ZM38.2678 64.6464L37.9142 64.2929L35.7929 66.4142L36.1464 66.7678L38.2678 64.6464ZM36.5 64.2929L36.1464 64.6464L38.2678 66.7678L38.6213 66.4142L36.5 64.2929ZM41.1464 59.6464L36.5 64.2929L38.6213 66.4142L43.2678 61.7678L41.1464 59.6464ZM43.7071 114.5V60.7071H40.7071V114.5H43.7071ZM43.7071 115V114.5H40.7071V115H43.7071ZM42.7071 113.5H42.2071V116.5H42.7071V113.5ZM68.7071 113.5H42.7071V116.5H68.7071V113.5ZM68.7071 116.5H94.7071V113.5H68.7071V116.5ZM94.7071 116.5H95.2071V113.5H94.7071V116.5ZM96.7071 115V114.5H93.7071V115H96.7071ZM96.7071 114.5V60.7071H93.7071V114.5H96.7071ZM94.1464 61.7678L98.7929 66.4142L100.914 64.2929L96.2678 59.6464L94.1464 61.7678ZM98.7929 66.4142L99.1464 66.7678L101.268 64.6464L100.914 64.2929L98.7929 66.4142ZM101.268 66.7678L101.621 66.4142L99.5 64.2929L99.1464 64.6464L101.268 66.7678ZM101.621 66.4142L120.121 47.9142L118 45.7929L99.5 64.2929L101.621 66.4142ZM120.121 47.9142L120.475 47.5607L118.354 45.4393L118 45.7929L120.121 47.9142ZM120.475 45.4393L120.121 45.0858L118 47.2071L118.354 47.5607L120.475 45.4393ZM120.121 45.0858L96.1213 21.0858L94 23.2071L118 47.2071L120.121 45.0858ZM96.1213 21.0858L95.9749 20.9393L93.8536 23.0607L94 23.2071L96.1213 21.0858ZM94.9142 20.5H94.7071V23.5H94.9142V20.5ZM94.7071 20.5H68.7071V23.5H94.7071V20.5ZM42.7071 23.5H68.7071V20.5H42.7071V23.5ZM68.7071 21.5H42.9142V24.5H68.7071V21.5ZM41.8536 21.9393L18.3536 45.4393L20.4749 47.5607L43.9749 24.0607L41.8536 21.9393ZM18.3536 47.5607L36.1464 65.3536L38.2678 63.2322L20.4749 45.4393L18.3536 47.5607ZM38.2678 65.3536L43.4142 60.2071L41.2929 58.0858L36.1464 63.2322L38.2678 65.3536ZM43.4142 60.2071L44.2678 59.3536L42.1464 57.2322L41.2929 58.0858L43.4142 60.2071ZM41.7071 58.2929V59.5H44.7071V58.2929H41.7071ZM41.7071 59.5V114H44.7071V59.5H41.7071ZM43.2071 115.5H68.7071V112.5H43.2071V115.5ZM94.2071 112.5H68.7071V115.5H94.2071V112.5ZM92.7071 59.5V114H95.7071V59.5H92.7071ZM92.7071 58.2929V59.5H95.7071V58.2929H92.7071ZM96.1213 58.0858L95.2678 57.2322L93.1464 59.3536L94 60.2071L96.1213 58.0858ZM101.268 63.2322L96.1213 58.0858L94 60.2071L99.1464 65.3536L101.268 63.2322ZM116.939 45.4393L99.1464 63.2322L101.268 65.3536L119.061 47.5607L116.939 45.4393ZM93.4393 24.0607L116.939 47.5607L119.061 45.4393L95.5607 21.9393L93.4393 24.0607ZM68.7071 24.5H94.5V21.5H68.7071V24.5Z" fill="black"/>
<rect x="2" y="2" width="133" height="133" rx="11" stroke="black" stroke-width="4"/>
</svg>
