<svg width="137" height="137" viewBox="0 0 137 137" fill="none" xmlns="http://www.w3.org/2000/svg">
<rect x="2" y="2" width="133" height="133" rx="11" stroke="black" stroke-width="4"/>
<path d="M86.6817 47.3487L80.726 34.7925V25.6774C80.726 20.3412 76.3846 16 71.0488 16C67.0531 16 63.6158 18.4343 62.1406 21.8976H58.8086C53.4001 21.8976 49 26.2977 49 31.7062C49 36.9076 53.0703 41.1743 58.1928 41.4935L55.4154 47.3489C54.4461 49.3925 53.7704 51.5846 53.4079 53.8245C53.3925 53.8975 53.3809 53.972 53.3735 54.0477C53.192 55.2394 53.0973 56.4435 53.0973 57.6452V111.137C53.0973 114.159 54.8956 116.872 57.6787 118.049C61.9276 119.846 66.4875 120.745 71.0488 120.745C75.6088 120.745 80.1708 119.846 84.4187 118.049C87.2017 116.872 89 114.158 89 111.137V92.5154V70.9204V57.6448C88.9998 54.1062 88.1985 50.5459 86.6817 47.3487ZM65.4635 25.6774C65.4635 22.5977 67.969 20.0922 71.0486 20.0922C74.1283 20.0922 76.6338 22.5977 76.6338 25.6774V33.2068H65.4635V25.6774ZM53.0922 31.706C53.0922 28.5538 55.6566 25.9896 58.8086 25.9896H61.3713V34.7923L60.1238 37.4221H58.8086C55.6566 37.4223 53.0922 34.8581 53.0922 31.706ZM59.113 49.1024L64.7115 37.2992H77.3858L82.9843 49.1024C83.4569 50.0987 83.8456 51.1378 84.1472 52.2022H57.9504C58.2515 51.1376 58.6404 50.0987 59.113 49.1024ZM84.9076 92.5154V111.137C84.9076 112.511 84.0899 113.745 82.8242 114.28C75.3406 117.446 66.7565 117.446 59.273 114.28C58.0074 113.745 57.1897 112.511 57.1897 111.137V57.645C57.1897 57.1947 57.2073 56.7443 57.2382 56.2942H84.8589C84.89 56.7443 84.9074 57.1947 84.9074 57.645V68.8744H72.0665C66.1691 68.8744 61.3713 73.6722 61.3713 79.5694V83.8664C61.3713 89.7638 66.1691 94.5614 72.0665 94.5614H73.3077C74.4378 94.5614 75.3537 93.6453 75.3537 92.5154C75.3537 91.3855 74.4376 90.4692 73.3077 90.4692H72.0665C68.4256 90.4692 65.4635 87.5071 65.4635 83.8664V79.5694C65.4635 75.9285 68.4256 72.9666 72.0665 72.9666H84.9076V92.5154Z" fill="black"/>
</svg>
